<?xml version="1.0" standalone="no"?><!DOCTYPE svg PUBLIC "-//W3C//DTD SVG 1.1//EN" "http://www.w3.org/Graphics/SVG/1.1/DTD/svg11.dtd"><svg t="1536319978829" class="icon" style="" viewBox="0 0 1024 1024" version="1.1" xmlns="http://www.w3.org/2000/svg" p-id="2265" xmlns:xlink="http://www.w3.org/1999/xlink" width="48" height="48"><defs><style type="text/css"></style></defs><path d="M762.624 396.55h-27.852V288.636c0-129.735-92.452-231.332-223.8-231.332-131.877 0-221.746 103.762-221.746 231.332V396.55h-27.85c-61.422 0-111.381 50.71-111.381 113.081v339.201c0 62.372 49.959 113.082 111.38 113.082h501.249c61.42 0 111.381-50.71 111.381-113.082V509.631c0-62.371-49.96-113.081-111.381-113.081zM344.906 288.636c0-96.34 64.889-174.79 166.065-174.79 100.118 0 168.1 76.771 168.1 174.79V396.55H344.906V288.636z m473.397 560.196c0 31.186-24.98 56.541-55.68 56.541H261.376c-30.7 0-55.701-25.355-55.701-56.54V509.63c0-31.186 25.001-56.54 55.701-56.54h501.249c30.699 0 55.679 25.355 55.679 56.54v339.201zM511.987 566.13c-30.743 0-55.679 25.354-55.679 56.584 0 20.93 11.208 39.187 27.85 48.964v92.389c0 15.593 12.457 28.226 27.83 28.226 15.394 0 27.85-12.633 27.85-28.226v-92.393c16.647-9.777 27.853-28.034 27.853-48.96 0-31.23-24.937-56.584-55.704-56.584z" fill="" p-id="2266"></path></svg>