<?xml version="1.0" standalone="no"?><!DOCTYPE svg PUBLIC "-//W3C//DTD SVG 1.1//EN" "http://www.w3.org/Graphics/SVG/1.1/DTD/svg11.dtd"><svg t="1536320009092" class="icon" style="" viewBox="0 0 1024 1024" version="1.1" xmlns="http://www.w3.org/2000/svg" p-id="2962" xmlns:xlink="http://www.w3.org/1999/xlink" width="48" height="48"><defs><style type="text/css"></style></defs><path d="M589.1 889H438.9c-142.5 0-255.1 0-255.1-73.9v-14.8c0-138.6 114.4-251.1 255.1-251.1h150.2c140.6 0 255.1 112.7 255.1 251.1v14.8C844.1 889 725.8 889 589.1 889zM438.8 593.4c-116.2 0-210.7 92.8-210.7 206.8V815c0 29.5 121.7 29.5 210.7 29.5H589c73.6 0 210.7 0 210.7-29.5v-14.8c0-114-94.5-206.8-210.7-206.8H438.8z m67.6-59.1c-111.5 0-202.4-89.6-202.4-199.5s90.7-199.5 202.4-199.5 202.4 89.4 202.4 199.5-90.7 199.5-202.4 199.5zM348.3 334.8c0 85.5 71 155.2 158.1 155.2s158.2-69.7 158.2-155.2-71-155.2-158.1-155.2-158.2 69.7-158.2 155.2z" p-id="2963"></path></svg>